<?xml version="1.0" encoding="UTF-8"?>
<svg id="Layer_1" xmlns="http://www.w3.org/2000/svg" version="1.1" viewBox="0 0 1189.4 340.2">
  <!-- Generator: Adobe Illustrator 29.1.0, SVG Export Plug-In . SVG Version: 2.1.0 Build 142)  -->
  <defs>
    <style>
      .st0 {
        fill: #006550;
      }

      .st1 {
        fill: #fff;
      }
    </style>
  </defs>
  <rect class="st1" x="408.7" y="2.3" width="33.1" height="150.9"/>
  <polygon class="st1" points="1150 189.2 1106.7 250.1 1063.8 189.2 1023.5 189.2 1089.8 280.3 1089.8 340.2 1123.2 340.2 1122.6 281.9 1189.4 189.2 1150 189.2"/>
  <g>
    <path class="st1" d="M980.4,238.4c0,11.3-9.3,18.6-24.8,19.4h-37.5v-38.1h34.8c18.2,0,27.4,6.3,27.4,18.7M1013.7,237.4c0-12.6-4.7-24.1-13.4-32.4-10.8-10.2-27.1-15.8-46.1-15.8h-69.1v150.9h33.1v-52.2h27.4l40.8,52.2h41l-46.1-58.5c20.7-7.5,32.4-23.3,32.4-44.3"/>
    <path class="st1" d="M747.6,219.7h34.9c18.2,0,27.4,6.3,27.4,18.7s-9.3,18.6-24.8,19.4h-37.5v-38.1ZM843.1,237.4c0-12.6-4.8-24.1-13.4-32.4-10.8-10.2-27.1-15.8-46.1-15.8h-69.1v150.9h33.1v-52.2h27.4l40.7,52.2h41l-46.1-58.5c20.7-7.5,32.5-23.3,32.5-44.3"/>
  </g>
  <polygon class="st1" points="556.7 189.2 556.7 340.2 676.6 340.2 676.6 309.9 589.7 309.9 589.7 279.2 666.6 279.2 666.6 249 589.7 249 589.7 219.5 675.6 219.5 675.6 189.2 556.7 189.2"/>
  <polygon class="st1" points="408.7 189.2 408.7 340.2 441.7 340.2 441.7 281.6 518 281.6 518 251.4 441.7 251.4 441.7 219.7 527 219.7 527 189.2 408.7 189.2"/>
  <g>
    <path class="st1" d="M681.2,78.1c0,26.8-20,47-46.5,47s-46.9-21-46.9-47.7,20-47,46.5-47,46.9,20.5,46.9,47.7M634.7,0c-45.2,0-80.6,34.3-80.6,78.1s34.4,77.4,80.1,77.4,80.6-34.3,80.6-78.1S680.4,0,634.7,0"/>
    <path class="st1" d="M785.2,32.8h34.9c18.2,0,27.4,6.3,27.4,18.7s-9.3,18.6-24.8,19.4h-37.5v-38.1ZM785.2,101h27.4l40.8,52.2h41l-46.1-58.4c20.7-7.5,32.4-23.3,32.4-44.3s-4.7-24.1-13.4-32.4c-10.8-10.2-27.1-15.8-46.1-15.8h-69.1v150.9h33.1v-52.2Z"/>
  </g>
  <polygon class="st1" points="554.9 2.3 510.4 2.3 443.2 69 513.1 153.2 554.9 153.2 485.6 69.8 554.9 2.3"/>
  <polygon class="st1" points="955.4 58.4 1033.5 153.2 1058.9 153.2 1058.9 2.3 1026.3 2.3 1026.3 94.6 950.4 2.3 922.7 2.3 922.7 153.2 955.4 153.2 955.4 58.4"/>
  <rect class="st1" x="0" y="0" width="340.2" height="340.2"/>
  <g>
    <polygon class="st0" points="168.3 268.9 109.4 268.9 37 165 118.2 71.3 146.3 71.3 146.3 81.4 122.7 81.4 70.3 142.5 151.5 258.7 168.3 258.7 168.3 268.9"/>
    <rect class="st0" x="177.1" y="50.1" width="9.7" height="240"/>
    <path class="st0" d="M259.8,213.5h-9.1l-.3-3.3c-.9-10.9-3-36.5-41.3-36.5h-3.6v-10.2h3.6c27.4,0,39-10,41.3-35.7l.3-3.3h9.1v89.1Z"/>
    <path class="st0" d="M303.1,139.7h-8.6l-.6-2.8c-8.4-37.3-28.5-55.5-61.7-55.5h-26.6v-10.2h97.6v68.4Z"/>
  </g>
</svg>